<mxfile host="app.diagrams.net" modified="2021-11-12T13:39:37.592Z" agent="5.0 (Windows NT 10.0; WOW64) AppleWebKit/537.36 (KHTML, like Gecko) Chrome/69.0.3947.100 Safari/537.36" etag="hiVlrB9JKOoA5_bjEZm_" version="15.7.3" type="github">
  <diagram id="kla_TFwa5ksE1_9cNiPs" name="Page-1">
    <mxGraphModel dx="952" dy="497" grid="1" gridSize="10" guides="1" tooltips="1" connect="1" arrows="1" fold="1" page="1" pageScale="1" pageWidth="980" pageHeight="420" background="none" math="0" shadow="0">
      <root>
        <mxCell id="0" />
        <mxCell id="1" parent="0" />
        <mxCell id="lSViHXrkh7Qbspp2XSNX-234" value="" style="rounded=1;whiteSpace=wrap;html=1;sketch=0;fontFamily=Times New Roman;fontSize=14;strokeColor=#23445d;fillColor=#bac8d3;gradientDirection=south;opacity=20;dashed=1;" vertex="1" parent="1">
          <mxGeometry x="710" y="62.94" width="250" height="291" as="geometry" />
        </mxCell>
        <mxCell id="lSViHXrkh7Qbspp2XSNX-188" value="" style="rounded=1;whiteSpace=wrap;html=1;sketch=0;strokeColor=#ae4132;fillColor=#fad9d5;gradientDirection=south;opacity=30;" vertex="1" parent="1">
          <mxGeometry x="72" y="263.94" width="193" height="104" as="geometry" />
        </mxCell>
        <mxCell id="lSViHXrkh7Qbspp2XSNX-205" value="" style="rounded=1;whiteSpace=wrap;html=1;sketch=0;strokeColor=#ae4132;fillColor=#fad9d5;gradientDirection=south;opacity=30;" vertex="1" parent="1">
          <mxGeometry x="338" y="266.94" width="181" height="104" as="geometry" />
        </mxCell>
        <mxCell id="lSViHXrkh7Qbspp2XSNX-208" value="" style="rounded=1;whiteSpace=wrap;html=1;sketch=0;strokeColor=#ae4132;fillColor=#fad9d5;gradientDirection=south;opacity=30;" vertex="1" parent="1">
          <mxGeometry x="338" y="32.94" width="180" height="104" as="geometry" />
        </mxCell>
        <mxCell id="lSViHXrkh7Qbspp2XSNX-183" value="" style="rounded=1;whiteSpace=wrap;html=1;sketch=0;strokeColor=#ae4132;fillColor=#fad9d5;gradientDirection=south;opacity=30;" vertex="1" parent="1">
          <mxGeometry x="68" y="32.94" width="193" height="104" as="geometry" />
        </mxCell>
        <mxCell id="lSViHXrkh7Qbspp2XSNX-160" style="edgeStyle=orthogonalEdgeStyle;rounded=0;sketch=0;orthogonalLoop=1;jettySize=auto;html=1;exitX=0.529;exitY=0.082;exitDx=0;exitDy=0;exitPerimeter=0;entryX=0.5;entryY=0;entryDx=0;entryDy=0;strokeColor=#000000;endArrow=openThin;endFill=0;strokeWidth=2;" edge="1" parent="1" source="lSViHXrkh7Qbspp2XSNX-192" target="lSViHXrkh7Qbspp2XSNX-129">
          <mxGeometry relative="1" as="geometry">
            <mxPoint x="45" y="42.94" as="sourcePoint" />
            <Array as="points">
              <mxPoint x="45" y="54.94" />
              <mxPoint x="45" y="24.939999999999998" />
              <mxPoint x="326" y="24.939999999999998" />
            </Array>
          </mxGeometry>
        </mxCell>
        <mxCell id="lSViHXrkh7Qbspp2XSNX-54" style="edgeStyle=orthogonalEdgeStyle;rounded=1;sketch=0;orthogonalLoop=1;jettySize=auto;html=1;exitX=1;exitY=0.5;exitDx=0;exitDy=0;strokeColor=#000000;endArrow=openThin;endFill=0;strokeWidth=2;" edge="1" parent="1" source="lSViHXrkh7Qbspp2XSNX-5">
          <mxGeometry relative="1" as="geometry">
            <mxPoint x="125.41379310344837" y="83.8710344827586" as="targetPoint" />
          </mxGeometry>
        </mxCell>
        <mxCell id="lSViHXrkh7Qbspp2XSNX-58" style="edgeStyle=orthogonalEdgeStyle;rounded=0;sketch=0;orthogonalLoop=1;jettySize=auto;html=1;exitX=0.5;exitY=0;exitDx=0;exitDy=0;entryX=0.5;entryY=0;entryDx=0;entryDy=0;strokeColor=#000000;endArrow=openThin;endFill=0;strokeWidth=2;" edge="1" parent="1" source="lSViHXrkh7Qbspp2XSNX-5" target="lSViHXrkh7Qbspp2XSNX-18">
          <mxGeometry relative="1" as="geometry">
            <Array as="points">
              <mxPoint x="91" y="36.94" />
              <mxPoint x="235" y="36.94" />
            </Array>
          </mxGeometry>
        </mxCell>
        <mxCell id="lSViHXrkh7Qbspp2XSNX-5" value="&lt;font face=&quot;Times New Roman&quot; size=&quot;1&quot;&gt;&lt;b style=&quot;font-size: 14px&quot;&gt;P&lt;/b&gt;&lt;/font&gt;" style="ellipse;whiteSpace=wrap;html=1;aspect=fixed;" vertex="1" parent="1">
          <mxGeometry x="79" y="71.94" width="24" height="24" as="geometry" />
        </mxCell>
        <mxCell id="lSViHXrkh7Qbspp2XSNX-55" style="edgeStyle=orthogonalEdgeStyle;rounded=1;sketch=0;orthogonalLoop=1;jettySize=auto;html=1;exitX=1;exitY=0.5;exitDx=0;exitDy=0;strokeColor=#000000;endArrow=openThin;endFill=0;strokeWidth=2;" edge="1" parent="1" source="lSViHXrkh7Qbspp2XSNX-6">
          <mxGeometry relative="1" as="geometry">
            <mxPoint x="155.75862068965512" y="83.18137931034488" as="targetPoint" />
          </mxGeometry>
        </mxCell>
        <mxCell id="lSViHXrkh7Qbspp2XSNX-6" value="" style="rounded=0;whiteSpace=wrap;html=1;fillColor=#f8cecc;gradientColor=#ea6b66;strokeColor=#b85450;" vertex="1" parent="1">
          <mxGeometry x="126" y="43.94" width="15" height="78" as="geometry" />
        </mxCell>
        <mxCell id="lSViHXrkh7Qbspp2XSNX-8" value="" style="endArrow=none;html=1;rounded=0;entryX=1;entryY=0.25;entryDx=0;entryDy=0;fillColor=#f8cecc;gradientColor=#ea6b66;strokeColor=#b85450;" edge="1" parent="1">
          <mxGeometry width="50" height="50" relative="1" as="geometry">
            <mxPoint x="126" y="82.94" as="sourcePoint" />
            <mxPoint x="141" y="82.87" as="targetPoint" />
          </mxGeometry>
        </mxCell>
        <mxCell id="lSViHXrkh7Qbspp2XSNX-9" value="" style="endArrow=none;html=1;rounded=0;fillColor=#f8cecc;gradientColor=#ea6b66;strokeColor=#b85450;" edge="1" parent="1">
          <mxGeometry width="50" height="50" relative="1" as="geometry">
            <mxPoint x="126" y="103.94" as="sourcePoint" />
            <mxPoint x="141" y="103.94" as="targetPoint" />
          </mxGeometry>
        </mxCell>
        <mxCell id="lSViHXrkh7Qbspp2XSNX-139" style="edgeStyle=orthogonalEdgeStyle;rounded=0;sketch=0;orthogonalLoop=1;jettySize=auto;html=1;exitX=1;exitY=0.5;exitDx=0;exitDy=0;entryX=0.048;entryY=0.432;entryDx=0;entryDy=0;entryPerimeter=0;strokeColor=#000000;endArrow=openThin;endFill=0;strokeWidth=2;" edge="1" parent="1" source="lSViHXrkh7Qbspp2XSNX-18">
          <mxGeometry relative="1" as="geometry">
            <mxPoint x="279.44000000000005" y="84.49999999999994" as="targetPoint" />
          </mxGeometry>
        </mxCell>
        <mxCell id="lSViHXrkh7Qbspp2XSNX-18" value="&lt;font face=&quot;Times New Roman&quot; size=&quot;1&quot;&gt;&lt;b style=&quot;font-size: 14px&quot;&gt;X&lt;/b&gt;&lt;/font&gt;" style="ellipse;whiteSpace=wrap;html=1;aspect=fixed;" vertex="1" parent="1">
          <mxGeometry x="223" y="71.94" width="24" height="24" as="geometry" />
        </mxCell>
        <mxCell id="lSViHXrkh7Qbspp2XSNX-63" style="edgeStyle=orthogonalEdgeStyle;rounded=0;sketch=0;orthogonalLoop=1;jettySize=auto;html=1;exitX=1;exitY=0.5;exitDx=0;exitDy=0;strokeColor=#000000;endArrow=openThin;endFill=0;strokeWidth=2;" edge="1" parent="1" source="lSViHXrkh7Qbspp2XSNX-20">
          <mxGeometry relative="1" as="geometry">
            <mxPoint x="382.1428571428571" y="85.79714285714289" as="targetPoint" />
          </mxGeometry>
        </mxCell>
        <mxCell id="lSViHXrkh7Qbspp2XSNX-69" style="edgeStyle=orthogonalEdgeStyle;rounded=0;sketch=0;orthogonalLoop=1;jettySize=auto;html=1;exitX=0.5;exitY=0;exitDx=0;exitDy=0;strokeColor=#000000;endArrow=openThin;endFill=0;strokeWidth=2;" edge="1" parent="1" source="lSViHXrkh7Qbspp2XSNX-20">
          <mxGeometry relative="1" as="geometry">
            <mxPoint x="490" y="75" as="targetPoint" />
            <Array as="points">
              <mxPoint x="357" y="43.94" />
              <mxPoint x="490" y="43.94" />
            </Array>
          </mxGeometry>
        </mxCell>
        <mxCell id="lSViHXrkh7Qbspp2XSNX-20" value="&lt;font face=&quot;Times New Roman&quot; size=&quot;1&quot;&gt;&lt;b style=&quot;font-size: 14px&quot;&gt;R&lt;/b&gt;&lt;/font&gt;" style="ellipse;whiteSpace=wrap;html=1;aspect=fixed;" vertex="1" parent="1">
          <mxGeometry x="344" y="72.94" width="26" height="26" as="geometry" />
        </mxCell>
        <mxCell id="lSViHXrkh7Qbspp2XSNX-167" style="edgeStyle=orthogonalEdgeStyle;rounded=0;sketch=0;orthogonalLoop=1;jettySize=auto;html=1;exitX=1;exitY=0.5;exitDx=0;exitDy=0;strokeColor=#000000;endArrow=openThin;endFill=0;strokeWidth=2;entryX=-0.01;entryY=0.453;entryDx=0;entryDy=0;entryPerimeter=0;" edge="1" parent="1" source="lSViHXrkh7Qbspp2XSNX-29" target="lSViHXrkh7Qbspp2XSNX-67">
          <mxGeometry relative="1" as="geometry">
            <mxPoint x="477" y="86" as="targetPoint" />
          </mxGeometry>
        </mxCell>
        <mxCell id="lSViHXrkh7Qbspp2XSNX-29" value="" style="whiteSpace=wrap;html=1;aspect=fixed;fillColor=#f8cecc;gradientColor=#ea6b66;strokeColor=#660000;gradientDirection=south;" vertex="1" parent="1">
          <mxGeometry x="431" y="68.44" width="35" height="35" as="geometry" />
        </mxCell>
        <mxCell id="lSViHXrkh7Qbspp2XSNX-30" value="" style="endArrow=none;html=1;rounded=0;exitX=0;exitY=0.25;exitDx=0;exitDy=0;" edge="1" parent="1">
          <mxGeometry width="50" height="50" relative="1" as="geometry">
            <mxPoint x="431" y="75.74000000000001" as="sourcePoint" />
            <mxPoint x="466" y="75.94" as="targetPoint" />
          </mxGeometry>
        </mxCell>
        <mxCell id="lSViHXrkh7Qbspp2XSNX-31" value="" style="endArrow=none;html=1;rounded=0;exitX=0;exitY=0.25;exitDx=0;exitDy=0;" edge="1" parent="1">
          <mxGeometry width="50" height="50" relative="1" as="geometry">
            <mxPoint x="431" y="85.74000000000001" as="sourcePoint" />
            <mxPoint x="466" y="85.94" as="targetPoint" />
          </mxGeometry>
        </mxCell>
        <mxCell id="lSViHXrkh7Qbspp2XSNX-32" value="" style="endArrow=none;html=1;rounded=0;exitX=0;exitY=0.25;exitDx=0;exitDy=0;" edge="1" parent="1">
          <mxGeometry width="50" height="50" relative="1" as="geometry">
            <mxPoint x="431" y="95.54000000000002" as="sourcePoint" />
            <mxPoint x="466" y="95.74000000000001" as="targetPoint" />
          </mxGeometry>
        </mxCell>
        <mxCell id="lSViHXrkh7Qbspp2XSNX-33" value="" style="endArrow=none;html=1;rounded=0;exitX=0.5;exitY=1;exitDx=0;exitDy=0;entryX=0.5;entryY=0;entryDx=0;entryDy=0;strokeColor=#660000;" edge="1" parent="1" source="lSViHXrkh7Qbspp2XSNX-29" target="lSViHXrkh7Qbspp2XSNX-29">
          <mxGeometry width="50" height="50" relative="1" as="geometry">
            <mxPoint x="396" y="118.44" as="sourcePoint" />
            <mxPoint x="446" y="68.44" as="targetPoint" />
          </mxGeometry>
        </mxCell>
        <mxCell id="lSViHXrkh7Qbspp2XSNX-34" value="" style="endArrow=none;html=1;rounded=0;exitX=0.5;exitY=1;exitDx=0;exitDy=0;entryX=0.5;entryY=0;entryDx=0;entryDy=0;strokeColor=#660000;" edge="1" parent="1">
          <mxGeometry width="50" height="50" relative="1" as="geometry">
            <mxPoint x="440" y="103.44" as="sourcePoint" />
            <mxPoint x="440" y="68.44" as="targetPoint" />
          </mxGeometry>
        </mxCell>
        <mxCell id="lSViHXrkh7Qbspp2XSNX-35" value="" style="endArrow=none;html=1;rounded=0;exitX=0.5;exitY=1;exitDx=0;exitDy=0;entryX=0.5;entryY=0;entryDx=0;entryDy=0;strokeColor=#660000;" edge="1" parent="1">
          <mxGeometry width="50" height="50" relative="1" as="geometry">
            <mxPoint x="457.5" y="103.44" as="sourcePoint" />
            <mxPoint x="457.5" y="68.44" as="targetPoint" />
          </mxGeometry>
        </mxCell>
        <mxCell id="lSViHXrkh7Qbspp2XSNX-64" style="edgeStyle=orthogonalEdgeStyle;rounded=0;sketch=0;orthogonalLoop=1;jettySize=auto;html=1;exitX=1;exitY=0.5;exitDx=0;exitDy=0;strokeColor=#000000;endArrow=openThin;endFill=0;strokeWidth=2;" edge="1" parent="1" source="lSViHXrkh7Qbspp2XSNX-36">
          <mxGeometry relative="1" as="geometry">
            <mxPoint x="431.8571428571429" y="85.79714285714289" as="targetPoint" />
          </mxGeometry>
        </mxCell>
        <mxCell id="lSViHXrkh7Qbspp2XSNX-36" value="" style="whiteSpace=wrap;html=1;aspect=fixed;fillColor=#f8cecc;strokeColor=#660000;gradientDirection=south;gradientColor=#B5739D;" vertex="1" parent="1">
          <mxGeometry x="383" y="68.44" width="35" height="35" as="geometry" />
        </mxCell>
        <mxCell id="lSViHXrkh7Qbspp2XSNX-37" value="" style="endArrow=none;html=1;rounded=0;exitX=0;exitY=0.25;exitDx=0;exitDy=0;fillColor=#f8cecc;gradientColor=#ea6b66;strokeColor=#000000;" edge="1" parent="1">
          <mxGeometry width="50" height="50" relative="1" as="geometry">
            <mxPoint x="383" y="75.74000000000001" as="sourcePoint" />
            <mxPoint x="418.0000000000001" y="75.94" as="targetPoint" />
          </mxGeometry>
        </mxCell>
        <mxCell id="lSViHXrkh7Qbspp2XSNX-38" value="" style="endArrow=none;html=1;rounded=0;exitX=0;exitY=0.25;exitDx=0;exitDy=0;fillColor=#f8cecc;gradientColor=#ea6b66;strokeColor=#000000;" edge="1" parent="1">
          <mxGeometry width="50" height="50" relative="1" as="geometry">
            <mxPoint x="383" y="85.74000000000001" as="sourcePoint" />
            <mxPoint x="418.0000000000001" y="85.94" as="targetPoint" />
          </mxGeometry>
        </mxCell>
        <mxCell id="lSViHXrkh7Qbspp2XSNX-39" value="" style="endArrow=none;html=1;rounded=0;exitX=0;exitY=0.25;exitDx=0;exitDy=0;fillColor=#f8cecc;gradientColor=#ea6b66;strokeColor=#000000;" edge="1" parent="1">
          <mxGeometry width="50" height="50" relative="1" as="geometry">
            <mxPoint x="383" y="95.54000000000002" as="sourcePoint" />
            <mxPoint x="418.0000000000001" y="95.74000000000001" as="targetPoint" />
          </mxGeometry>
        </mxCell>
        <mxCell id="lSViHXrkh7Qbspp2XSNX-40" value="" style="endArrow=none;html=1;rounded=0;exitX=0.5;exitY=1;exitDx=0;exitDy=0;entryX=0.5;entryY=0;entryDx=0;entryDy=0;strokeColor=#660000;fillColor=#f8cecc;gradientColor=#ea6b66;" edge="1" parent="1" source="lSViHXrkh7Qbspp2XSNX-36" target="lSViHXrkh7Qbspp2XSNX-36">
          <mxGeometry width="50" height="50" relative="1" as="geometry">
            <mxPoint x="348" y="118.44" as="sourcePoint" />
            <mxPoint x="398" y="68.44" as="targetPoint" />
          </mxGeometry>
        </mxCell>
        <mxCell id="lSViHXrkh7Qbspp2XSNX-41" value="" style="endArrow=none;html=1;rounded=0;exitX=0.5;exitY=1;exitDx=0;exitDy=0;entryX=0.5;entryY=0;entryDx=0;entryDy=0;strokeColor=#660000;fillColor=#f8cecc;gradientColor=#ea6b66;" edge="1" parent="1">
          <mxGeometry width="50" height="50" relative="1" as="geometry">
            <mxPoint x="392" y="103.44" as="sourcePoint" />
            <mxPoint x="392" y="68.44" as="targetPoint" />
          </mxGeometry>
        </mxCell>
        <mxCell id="lSViHXrkh7Qbspp2XSNX-42" value="" style="endArrow=none;html=1;rounded=0;exitX=0.5;exitY=1;exitDx=0;exitDy=0;entryX=0.5;entryY=0;entryDx=0;entryDy=0;strokeColor=#660000;fillColor=#f8cecc;gradientColor=#ea6b66;" edge="1" parent="1">
          <mxGeometry width="50" height="50" relative="1" as="geometry">
            <mxPoint x="409.5" y="103.44" as="sourcePoint" />
            <mxPoint x="409.5" y="68.44" as="targetPoint" />
          </mxGeometry>
        </mxCell>
        <mxCell id="lSViHXrkh7Qbspp2XSNX-56" style="edgeStyle=orthogonalEdgeStyle;rounded=1;sketch=0;orthogonalLoop=1;jettySize=auto;html=1;exitX=1;exitY=0.5;exitDx=0;exitDy=0;entryX=0;entryY=0.5;entryDx=0;entryDy=0;strokeColor=#000000;endArrow=openThin;endFill=0;strokeWidth=2;" edge="1" parent="1" source="lSViHXrkh7Qbspp2XSNX-43" target="lSViHXrkh7Qbspp2XSNX-47">
          <mxGeometry relative="1" as="geometry" />
        </mxCell>
        <mxCell id="lSViHXrkh7Qbspp2XSNX-43" value="" style="rounded=0;whiteSpace=wrap;html=1;fillColor=#e6d0de;gradientColor=#d5739d;strokeColor=#996185;" vertex="1" parent="1">
          <mxGeometry x="156" y="43.94" width="15" height="78" as="geometry" />
        </mxCell>
        <mxCell id="lSViHXrkh7Qbspp2XSNX-44" value="" style="endArrow=none;html=1;rounded=0;entryX=1;entryY=0.25;entryDx=0;entryDy=0;exitX=0;exitY=0.25;exitDx=0;exitDy=0;fillColor=#e6d0de;gradientColor=#d5739d;strokeColor=#996185;" edge="1" parent="1" source="lSViHXrkh7Qbspp2XSNX-43" target="lSViHXrkh7Qbspp2XSNX-43">
          <mxGeometry width="50" height="50" relative="1" as="geometry">
            <mxPoint x="156" y="63.94" as="sourcePoint" />
            <mxPoint x="206" y="13.939999999999998" as="targetPoint" />
          </mxGeometry>
        </mxCell>
        <mxCell id="lSViHXrkh7Qbspp2XSNX-45" value="" style="endArrow=none;html=1;rounded=0;entryX=1;entryY=0.25;entryDx=0;entryDy=0;fillColor=#e6d0de;gradientColor=#d5739d;strokeColor=#996185;" edge="1" parent="1">
          <mxGeometry width="50" height="50" relative="1" as="geometry">
            <mxPoint x="156" y="82.94" as="sourcePoint" />
            <mxPoint x="171" y="82.86999999999998" as="targetPoint" />
          </mxGeometry>
        </mxCell>
        <mxCell id="lSViHXrkh7Qbspp2XSNX-46" value="" style="endArrow=none;html=1;rounded=0;fillColor=#e6d0de;gradientColor=#d5739d;strokeColor=#996185;" edge="1" parent="1">
          <mxGeometry width="50" height="50" relative="1" as="geometry">
            <mxPoint x="156" y="103.94" as="sourcePoint" />
            <mxPoint x="171" y="103.94" as="targetPoint" />
          </mxGeometry>
        </mxCell>
        <mxCell id="lSViHXrkh7Qbspp2XSNX-47" value="" style="rounded=0;whiteSpace=wrap;html=1;fillColor=#f8cecc;strokeColor=#b85450;gradientColor=#FFCCCC;" vertex="1" parent="1">
          <mxGeometry x="188" y="43.94" width="15" height="78" as="geometry" />
        </mxCell>
        <mxCell id="lSViHXrkh7Qbspp2XSNX-48" value="" style="endArrow=none;html=1;rounded=0;entryX=1;entryY=0.25;entryDx=0;entryDy=0;exitX=0;exitY=0.25;exitDx=0;exitDy=0;fillColor=#f8cecc;strokeColor=#b85450;gradientColor=#ea6b66;" edge="1" parent="1" source="lSViHXrkh7Qbspp2XSNX-47" target="lSViHXrkh7Qbspp2XSNX-47">
          <mxGeometry width="50" height="50" relative="1" as="geometry">
            <mxPoint x="188" y="63.94" as="sourcePoint" />
            <mxPoint x="238" y="13.939999999999998" as="targetPoint" />
          </mxGeometry>
        </mxCell>
        <mxCell id="lSViHXrkh7Qbspp2XSNX-49" value="" style="endArrow=none;html=1;rounded=0;entryX=1;entryY=0.25;entryDx=0;entryDy=0;fillColor=#f8cecc;strokeColor=#b85450;gradientColor=#ea6b66;" edge="1" parent="1">
          <mxGeometry width="50" height="50" relative="1" as="geometry">
            <mxPoint x="188" y="82.94" as="sourcePoint" />
            <mxPoint x="203" y="82.86999999999998" as="targetPoint" />
          </mxGeometry>
        </mxCell>
        <mxCell id="lSViHXrkh7Qbspp2XSNX-50" value="" style="endArrow=none;html=1;rounded=0;fillColor=#f8cecc;strokeColor=#b85450;gradientColor=#ea6b66;" edge="1" parent="1">
          <mxGeometry width="50" height="50" relative="1" as="geometry">
            <mxPoint x="188" y="103.94" as="sourcePoint" />
            <mxPoint x="203" y="103.94" as="targetPoint" />
          </mxGeometry>
        </mxCell>
        <mxCell id="lSViHXrkh7Qbspp2XSNX-62" style="edgeStyle=orthogonalEdgeStyle;rounded=0;sketch=0;orthogonalLoop=1;jettySize=auto;html=1;exitX=1;exitY=0.5;exitDx=0;exitDy=0;strokeColor=#000000;endArrow=openThin;endFill=0;strokeWidth=2;" edge="1" parent="1">
          <mxGeometry relative="1" as="geometry">
            <mxPoint x="344" y="85.94" as="targetPoint" />
            <mxPoint x="307.9999999999975" y="85.94999999999999" as="sourcePoint" />
          </mxGeometry>
        </mxCell>
        <mxCell id="lSViHXrkh7Qbspp2XSNX-67" value="&lt;font face=&quot;Times New Roman&quot; size=&quot;1&quot;&gt;&lt;b style=&quot;font-size: 14px&quot;&gt;X&lt;/b&gt;&lt;/font&gt;" style="ellipse;whiteSpace=wrap;html=1;aspect=fixed;" vertex="1" parent="1">
          <mxGeometry x="479" y="74.94" width="24" height="24" as="geometry" />
        </mxCell>
        <mxCell id="lSViHXrkh7Qbspp2XSNX-116" style="edgeStyle=orthogonalEdgeStyle;rounded=0;sketch=0;orthogonalLoop=1;jettySize=auto;html=1;exitX=0;exitY=0;exitDx=30;exitDy=50;exitPerimeter=0;strokeColor=#000000;strokeWidth=2;" edge="1" parent="1">
          <mxGeometry relative="1" as="geometry">
            <mxPoint x="78" y="317.94" as="targetPoint" />
            <mxPoint x="55" y="317.94" as="sourcePoint" />
          </mxGeometry>
        </mxCell>
        <mxCell id="lSViHXrkh7Qbspp2XSNX-161" style="edgeStyle=orthogonalEdgeStyle;rounded=0;sketch=0;orthogonalLoop=1;jettySize=auto;html=1;exitX=0.529;exitY=0.945;exitDx=0;exitDy=0;exitPerimeter=0;entryX=0.5;entryY=1;entryDx=0;entryDy=0;strokeColor=#000000;endArrow=openThin;endFill=0;strokeWidth=2;" edge="1" parent="1" source="lSViHXrkh7Qbspp2XSNX-193" target="lSViHXrkh7Qbspp2XSNX-145">
          <mxGeometry relative="1" as="geometry">
            <mxPoint x="45" y="347.94" as="sourcePoint" />
            <Array as="points">
              <mxPoint x="45" y="378" />
              <mxPoint x="326" y="378" />
            </Array>
          </mxGeometry>
        </mxCell>
        <mxCell id="lSViHXrkh7Qbspp2XSNX-72" style="edgeStyle=orthogonalEdgeStyle;rounded=1;sketch=0;orthogonalLoop=1;jettySize=auto;html=1;exitX=1;exitY=0.5;exitDx=0;exitDy=0;strokeColor=#000000;endArrow=openThin;endFill=0;strokeWidth=2;" edge="1" parent="1" source="lSViHXrkh7Qbspp2XSNX-74">
          <mxGeometry relative="1" as="geometry">
            <mxPoint x="125.41379310344837" y="318.8710344827586" as="targetPoint" />
          </mxGeometry>
        </mxCell>
        <mxCell id="lSViHXrkh7Qbspp2XSNX-118" style="edgeStyle=orthogonalEdgeStyle;rounded=0;sketch=0;orthogonalLoop=1;jettySize=auto;html=1;exitX=0.5;exitY=1;exitDx=0;exitDy=0;entryX=0.5;entryY=1;entryDx=0;entryDy=0;strokeColor=#000000;endArrow=openThin;endFill=0;strokeWidth=2;" edge="1" parent="1" source="lSViHXrkh7Qbspp2XSNX-74" target="lSViHXrkh7Qbspp2XSNX-81">
          <mxGeometry relative="1" as="geometry">
            <Array as="points">
              <mxPoint x="91" y="363.94" />
              <mxPoint x="235" y="363.94" />
            </Array>
          </mxGeometry>
        </mxCell>
        <mxCell id="lSViHXrkh7Qbspp2XSNX-74" value="&lt;b&gt;&lt;font face=&quot;Times New Roman&quot; style=&quot;font-size: 14px&quot;&gt;P&lt;/font&gt;&lt;/b&gt;" style="ellipse;whiteSpace=wrap;html=1;aspect=fixed;" vertex="1" parent="1">
          <mxGeometry x="79" y="306.94" width="24" height="24" as="geometry" />
        </mxCell>
        <mxCell id="lSViHXrkh7Qbspp2XSNX-75" style="edgeStyle=orthogonalEdgeStyle;rounded=1;sketch=0;orthogonalLoop=1;jettySize=auto;html=1;exitX=1;exitY=0.5;exitDx=0;exitDy=0;strokeColor=#000000;endArrow=openThin;endFill=0;strokeWidth=2;" edge="1" parent="1" source="lSViHXrkh7Qbspp2XSNX-76">
          <mxGeometry relative="1" as="geometry">
            <mxPoint x="155.75862068965512" y="318.1813793103449" as="targetPoint" />
          </mxGeometry>
        </mxCell>
        <mxCell id="lSViHXrkh7Qbspp2XSNX-76" value="" style="rounded=0;whiteSpace=wrap;html=1;fillColor=#f8cecc;gradientColor=#ea6b66;strokeColor=#b85450;" vertex="1" parent="1">
          <mxGeometry x="126" y="278.94" width="15" height="78" as="geometry" />
        </mxCell>
        <mxCell id="lSViHXrkh7Qbspp2XSNX-77" value="" style="endArrow=none;html=1;rounded=0;entryX=1;entryY=0.25;entryDx=0;entryDy=0;exitX=0;exitY=0.25;exitDx=0;exitDy=0;fillColor=#f8cecc;gradientColor=#ea6b66;strokeColor=#b85450;" edge="1" parent="1" source="lSViHXrkh7Qbspp2XSNX-76" target="lSViHXrkh7Qbspp2XSNX-76">
          <mxGeometry width="50" height="50" relative="1" as="geometry">
            <mxPoint x="126" y="298.94" as="sourcePoint" />
            <mxPoint x="176" y="248.94" as="targetPoint" />
          </mxGeometry>
        </mxCell>
        <mxCell id="lSViHXrkh7Qbspp2XSNX-78" value="" style="endArrow=none;html=1;rounded=0;entryX=1;entryY=0.25;entryDx=0;entryDy=0;fillColor=#f8cecc;gradientColor=#ea6b66;strokeColor=#b85450;" edge="1" parent="1">
          <mxGeometry width="50" height="50" relative="1" as="geometry">
            <mxPoint x="126" y="317.94" as="sourcePoint" />
            <mxPoint x="141" y="317.87000000000006" as="targetPoint" />
          </mxGeometry>
        </mxCell>
        <mxCell id="lSViHXrkh7Qbspp2XSNX-79" value="" style="endArrow=none;html=1;rounded=0;fillColor=#f8cecc;gradientColor=#ea6b66;strokeColor=#b85450;" edge="1" parent="1">
          <mxGeometry width="50" height="50" relative="1" as="geometry">
            <mxPoint x="126" y="338.94" as="sourcePoint" />
            <mxPoint x="141" y="338.94" as="targetPoint" />
          </mxGeometry>
        </mxCell>
        <mxCell id="lSViHXrkh7Qbspp2XSNX-80" style="edgeStyle=orthogonalEdgeStyle;rounded=0;sketch=0;orthogonalLoop=1;jettySize=auto;html=1;exitX=1;exitY=0.5;exitDx=0;exitDy=0;strokeColor=#000000;endArrow=openThin;endFill=0;strokeWidth=2;" edge="1" parent="1" source="lSViHXrkh7Qbspp2XSNX-81">
          <mxGeometry relative="1" as="geometry">
            <mxPoint x="276.44827586206907" y="318.8710344827586" as="targetPoint" />
          </mxGeometry>
        </mxCell>
        <mxCell id="lSViHXrkh7Qbspp2XSNX-81" value="&lt;b&gt;&lt;font face=&quot;Times New Roman&quot; style=&quot;font-size: 14px&quot;&gt;X&lt;/font&gt;&lt;/b&gt;" style="ellipse;whiteSpace=wrap;html=1;aspect=fixed;" vertex="1" parent="1">
          <mxGeometry x="223" y="306.94" width="24" height="24" as="geometry" />
        </mxCell>
        <mxCell id="lSViHXrkh7Qbspp2XSNX-83" style="edgeStyle=orthogonalEdgeStyle;rounded=0;sketch=0;orthogonalLoop=1;jettySize=auto;html=1;exitX=1;exitY=0.5;exitDx=0;exitDy=0;strokeColor=#000000;endArrow=openThin;endFill=0;strokeWidth=2;" edge="1" parent="1" source="lSViHXrkh7Qbspp2XSNX-85">
          <mxGeometry relative="1" as="geometry">
            <mxPoint x="383.1428571428571" y="317.7971428571429" as="targetPoint" />
          </mxGeometry>
        </mxCell>
        <mxCell id="lSViHXrkh7Qbspp2XSNX-119" style="edgeStyle=orthogonalEdgeStyle;rounded=0;sketch=0;orthogonalLoop=1;jettySize=auto;html=1;exitX=0.5;exitY=1;exitDx=0;exitDy=0;strokeColor=#000000;endArrow=openThin;endFill=0;strokeWidth=2;" edge="1" parent="1" source="lSViHXrkh7Qbspp2XSNX-85">
          <mxGeometry relative="1" as="geometry">
            <mxPoint x="491" y="331" as="targetPoint" />
            <Array as="points">
              <mxPoint x="358" y="359.94" />
              <mxPoint x="491" y="359.94" />
            </Array>
          </mxGeometry>
        </mxCell>
        <mxCell id="lSViHXrkh7Qbspp2XSNX-85" value="&lt;font face=&quot;Times New Roman&quot; size=&quot;1&quot;&gt;&lt;b style=&quot;font-size: 14px&quot;&gt;R&lt;/b&gt;&lt;/font&gt;" style="ellipse;whiteSpace=wrap;html=1;aspect=fixed;" vertex="1" parent="1">
          <mxGeometry x="345" y="304.94" width="26" height="26" as="geometry" />
        </mxCell>
        <mxCell id="lSViHXrkh7Qbspp2XSNX-86" style="edgeStyle=orthogonalEdgeStyle;rounded=0;sketch=0;orthogonalLoop=1;jettySize=auto;html=1;exitX=1;exitY=0.5;exitDx=0;exitDy=0;strokeColor=#000000;entryX=0.008;entryY=0.451;entryDx=0;entryDy=0;entryPerimeter=0;endArrow=openThin;endFill=0;strokeWidth=2;" edge="1" parent="1" source="lSViHXrkh7Qbspp2XSNX-87" target="lSViHXrkh7Qbspp2XSNX-115">
          <mxGeometry relative="1" as="geometry">
            <mxPoint x="478" y="318" as="targetPoint" />
          </mxGeometry>
        </mxCell>
        <mxCell id="lSViHXrkh7Qbspp2XSNX-87" value="" style="whiteSpace=wrap;html=1;aspect=fixed;fillColor=#f8cecc;gradientColor=#ea6b66;strokeColor=#660000;gradientDirection=south;" vertex="1" parent="1">
          <mxGeometry x="432" y="300.44" width="35" height="35" as="geometry" />
        </mxCell>
        <mxCell id="lSViHXrkh7Qbspp2XSNX-88" value="" style="endArrow=none;html=1;rounded=0;exitX=0;exitY=0.25;exitDx=0;exitDy=0;" edge="1" parent="1">
          <mxGeometry width="50" height="50" relative="1" as="geometry">
            <mxPoint x="432" y="307.73999999999995" as="sourcePoint" />
            <mxPoint x="467" y="307.94" as="targetPoint" />
          </mxGeometry>
        </mxCell>
        <mxCell id="lSViHXrkh7Qbspp2XSNX-89" value="" style="endArrow=none;html=1;rounded=0;exitX=0;exitY=0.25;exitDx=0;exitDy=0;" edge="1" parent="1">
          <mxGeometry width="50" height="50" relative="1" as="geometry">
            <mxPoint x="432" y="317.73999999999995" as="sourcePoint" />
            <mxPoint x="467" y="317.94" as="targetPoint" />
          </mxGeometry>
        </mxCell>
        <mxCell id="lSViHXrkh7Qbspp2XSNX-90" value="" style="endArrow=none;html=1;rounded=0;exitX=0;exitY=0.25;exitDx=0;exitDy=0;" edge="1" parent="1">
          <mxGeometry width="50" height="50" relative="1" as="geometry">
            <mxPoint x="432" y="327.54" as="sourcePoint" />
            <mxPoint x="467" y="327.73999999999995" as="targetPoint" />
          </mxGeometry>
        </mxCell>
        <mxCell id="lSViHXrkh7Qbspp2XSNX-91" value="" style="endArrow=none;html=1;rounded=0;exitX=0.5;exitY=1;exitDx=0;exitDy=0;entryX=0.5;entryY=0;entryDx=0;entryDy=0;strokeColor=#660000;" edge="1" parent="1" source="lSViHXrkh7Qbspp2XSNX-87" target="lSViHXrkh7Qbspp2XSNX-87">
          <mxGeometry width="50" height="50" relative="1" as="geometry">
            <mxPoint x="397" y="350.44" as="sourcePoint" />
            <mxPoint x="447" y="300.44" as="targetPoint" />
          </mxGeometry>
        </mxCell>
        <mxCell id="lSViHXrkh7Qbspp2XSNX-92" value="" style="endArrow=none;html=1;rounded=0;exitX=0.5;exitY=1;exitDx=0;exitDy=0;entryX=0.5;entryY=0;entryDx=0;entryDy=0;strokeColor=#660000;" edge="1" parent="1">
          <mxGeometry width="50" height="50" relative="1" as="geometry">
            <mxPoint x="441" y="335.44" as="sourcePoint" />
            <mxPoint x="441" y="300.44" as="targetPoint" />
          </mxGeometry>
        </mxCell>
        <mxCell id="lSViHXrkh7Qbspp2XSNX-93" value="" style="endArrow=none;html=1;rounded=0;exitX=0.5;exitY=1;exitDx=0;exitDy=0;entryX=0.5;entryY=0;entryDx=0;entryDy=0;strokeColor=#660000;" edge="1" parent="1">
          <mxGeometry width="50" height="50" relative="1" as="geometry">
            <mxPoint x="458.5" y="335.44" as="sourcePoint" />
            <mxPoint x="458.5" y="300.44" as="targetPoint" />
          </mxGeometry>
        </mxCell>
        <mxCell id="lSViHXrkh7Qbspp2XSNX-94" style="edgeStyle=orthogonalEdgeStyle;rounded=0;sketch=0;orthogonalLoop=1;jettySize=auto;html=1;exitX=1;exitY=0.5;exitDx=0;exitDy=0;strokeColor=#000000;endArrow=openThin;endFill=0;strokeWidth=2;" edge="1" parent="1" source="lSViHXrkh7Qbspp2XSNX-95">
          <mxGeometry relative="1" as="geometry">
            <mxPoint x="432.8571428571429" y="317.7971428571429" as="targetPoint" />
          </mxGeometry>
        </mxCell>
        <mxCell id="lSViHXrkh7Qbspp2XSNX-95" value="" style="whiteSpace=wrap;html=1;aspect=fixed;fillColor=#f8cecc;strokeColor=#660000;gradientDirection=south;gradientColor=#B5739D;" vertex="1" parent="1">
          <mxGeometry x="384" y="300.44" width="35" height="35" as="geometry" />
        </mxCell>
        <mxCell id="lSViHXrkh7Qbspp2XSNX-96" value="" style="endArrow=none;html=1;rounded=0;exitX=0;exitY=0.25;exitDx=0;exitDy=0;fillColor=#f8cecc;gradientColor=#ea6b66;strokeColor=#000000;" edge="1" parent="1">
          <mxGeometry width="50" height="50" relative="1" as="geometry">
            <mxPoint x="384" y="307.73999999999995" as="sourcePoint" />
            <mxPoint x="419" y="307.94" as="targetPoint" />
          </mxGeometry>
        </mxCell>
        <mxCell id="lSViHXrkh7Qbspp2XSNX-97" value="" style="endArrow=none;html=1;rounded=0;exitX=0;exitY=0.25;exitDx=0;exitDy=0;fillColor=#f8cecc;gradientColor=#ea6b66;strokeColor=#000000;" edge="1" parent="1">
          <mxGeometry width="50" height="50" relative="1" as="geometry">
            <mxPoint x="384" y="317.73999999999995" as="sourcePoint" />
            <mxPoint x="419" y="317.94" as="targetPoint" />
          </mxGeometry>
        </mxCell>
        <mxCell id="lSViHXrkh7Qbspp2XSNX-98" value="" style="endArrow=none;html=1;rounded=0;exitX=0;exitY=0.25;exitDx=0;exitDy=0;fillColor=#f8cecc;gradientColor=#ea6b66;strokeColor=#000000;" edge="1" parent="1">
          <mxGeometry width="50" height="50" relative="1" as="geometry">
            <mxPoint x="384" y="327.54" as="sourcePoint" />
            <mxPoint x="419" y="327.73999999999995" as="targetPoint" />
          </mxGeometry>
        </mxCell>
        <mxCell id="lSViHXrkh7Qbspp2XSNX-99" value="" style="endArrow=none;html=1;rounded=0;exitX=0.5;exitY=1;exitDx=0;exitDy=0;entryX=0.5;entryY=0;entryDx=0;entryDy=0;strokeColor=#660000;fillColor=#f8cecc;gradientColor=#ea6b66;" edge="1" parent="1" source="lSViHXrkh7Qbspp2XSNX-95" target="lSViHXrkh7Qbspp2XSNX-95">
          <mxGeometry width="50" height="50" relative="1" as="geometry">
            <mxPoint x="349" y="350.44" as="sourcePoint" />
            <mxPoint x="399" y="300.44" as="targetPoint" />
          </mxGeometry>
        </mxCell>
        <mxCell id="lSViHXrkh7Qbspp2XSNX-100" value="" style="endArrow=none;html=1;rounded=0;exitX=0.5;exitY=1;exitDx=0;exitDy=0;entryX=0.5;entryY=0;entryDx=0;entryDy=0;strokeColor=#660000;fillColor=#f8cecc;gradientColor=#ea6b66;" edge="1" parent="1">
          <mxGeometry width="50" height="50" relative="1" as="geometry">
            <mxPoint x="393" y="335.44" as="sourcePoint" />
            <mxPoint x="393" y="300.44" as="targetPoint" />
          </mxGeometry>
        </mxCell>
        <mxCell id="lSViHXrkh7Qbspp2XSNX-101" value="" style="endArrow=none;html=1;rounded=0;exitX=0.5;exitY=1;exitDx=0;exitDy=0;entryX=0.5;entryY=0;entryDx=0;entryDy=0;strokeColor=#660000;fillColor=#f8cecc;gradientColor=#ea6b66;" edge="1" parent="1">
          <mxGeometry width="50" height="50" relative="1" as="geometry">
            <mxPoint x="410.5" y="335.44" as="sourcePoint" />
            <mxPoint x="410.5" y="300.44" as="targetPoint" />
          </mxGeometry>
        </mxCell>
        <mxCell id="lSViHXrkh7Qbspp2XSNX-102" style="edgeStyle=orthogonalEdgeStyle;rounded=1;sketch=0;orthogonalLoop=1;jettySize=auto;html=1;exitX=1;exitY=0.5;exitDx=0;exitDy=0;entryX=0;entryY=0.5;entryDx=0;entryDy=0;strokeColor=#000000;endArrow=openThin;endFill=0;strokeWidth=2;" edge="1" parent="1" source="lSViHXrkh7Qbspp2XSNX-103" target="lSViHXrkh7Qbspp2XSNX-108">
          <mxGeometry relative="1" as="geometry" />
        </mxCell>
        <mxCell id="lSViHXrkh7Qbspp2XSNX-103" value="" style="rounded=0;whiteSpace=wrap;html=1;fillColor=#e6d0de;gradientColor=#d5739d;strokeColor=#996185;" vertex="1" parent="1">
          <mxGeometry x="156" y="278.94" width="15" height="78" as="geometry" />
        </mxCell>
        <mxCell id="lSViHXrkh7Qbspp2XSNX-104" value="" style="endArrow=none;html=1;rounded=0;entryX=1;entryY=0.25;entryDx=0;entryDy=0;exitX=0;exitY=0.25;exitDx=0;exitDy=0;fillColor=#e6d0de;gradientColor=#d5739d;strokeColor=#996185;" edge="1" parent="1" source="lSViHXrkh7Qbspp2XSNX-103" target="lSViHXrkh7Qbspp2XSNX-103">
          <mxGeometry width="50" height="50" relative="1" as="geometry">
            <mxPoint x="156" y="298.94" as="sourcePoint" />
            <mxPoint x="206" y="248.94" as="targetPoint" />
          </mxGeometry>
        </mxCell>
        <mxCell id="lSViHXrkh7Qbspp2XSNX-105" value="" style="endArrow=none;html=1;rounded=0;entryX=1;entryY=0.25;entryDx=0;entryDy=0;fillColor=#e6d0de;gradientColor=#d5739d;strokeColor=#996185;" edge="1" parent="1">
          <mxGeometry width="50" height="50" relative="1" as="geometry">
            <mxPoint x="156" y="317.94" as="sourcePoint" />
            <mxPoint x="171" y="317.86999999999995" as="targetPoint" />
          </mxGeometry>
        </mxCell>
        <mxCell id="lSViHXrkh7Qbspp2XSNX-106" value="" style="endArrow=none;html=1;rounded=0;fillColor=#e6d0de;gradientColor=#d5739d;strokeColor=#996185;" edge="1" parent="1">
          <mxGeometry width="50" height="50" relative="1" as="geometry">
            <mxPoint x="156" y="338.94" as="sourcePoint" />
            <mxPoint x="171" y="338.94" as="targetPoint" />
          </mxGeometry>
        </mxCell>
        <mxCell id="lSViHXrkh7Qbspp2XSNX-117" style="edgeStyle=orthogonalEdgeStyle;rounded=0;sketch=0;orthogonalLoop=1;jettySize=auto;html=1;exitX=1;exitY=0.5;exitDx=0;exitDy=0;strokeColor=#000000;endArrow=openThin;endFill=0;strokeWidth=2;" edge="1" parent="1" source="lSViHXrkh7Qbspp2XSNX-108">
          <mxGeometry relative="1" as="geometry">
            <mxPoint x="222" y="317.94" as="targetPoint" />
          </mxGeometry>
        </mxCell>
        <mxCell id="lSViHXrkh7Qbspp2XSNX-108" value="" style="rounded=0;whiteSpace=wrap;html=1;fillColor=#f8cecc;strokeColor=#b85450;gradientColor=#FFCCCC;" vertex="1" parent="1">
          <mxGeometry x="188" y="278.94" width="15" height="78" as="geometry" />
        </mxCell>
        <mxCell id="lSViHXrkh7Qbspp2XSNX-109" value="" style="endArrow=none;html=1;rounded=0;entryX=1;entryY=0.25;entryDx=0;entryDy=0;exitX=0;exitY=0.25;exitDx=0;exitDy=0;fillColor=#f8cecc;strokeColor=#b85450;gradientColor=#ea6b66;" edge="1" parent="1" source="lSViHXrkh7Qbspp2XSNX-108" target="lSViHXrkh7Qbspp2XSNX-108">
          <mxGeometry width="50" height="50" relative="1" as="geometry">
            <mxPoint x="188" y="298.94" as="sourcePoint" />
            <mxPoint x="238" y="248.94" as="targetPoint" />
          </mxGeometry>
        </mxCell>
        <mxCell id="lSViHXrkh7Qbspp2XSNX-110" value="" style="endArrow=none;html=1;rounded=0;entryX=1;entryY=0.25;entryDx=0;entryDy=0;fillColor=#f8cecc;strokeColor=#b85450;gradientColor=#ea6b66;" edge="1" parent="1">
          <mxGeometry width="50" height="50" relative="1" as="geometry">
            <mxPoint x="188" y="317.94" as="sourcePoint" />
            <mxPoint x="203" y="317.86999999999995" as="targetPoint" />
          </mxGeometry>
        </mxCell>
        <mxCell id="lSViHXrkh7Qbspp2XSNX-111" value="" style="endArrow=none;html=1;rounded=0;fillColor=#f8cecc;strokeColor=#b85450;gradientColor=#ea6b66;" edge="1" parent="1">
          <mxGeometry width="50" height="50" relative="1" as="geometry">
            <mxPoint x="188" y="338.94" as="sourcePoint" />
            <mxPoint x="203" y="338.94" as="targetPoint" />
          </mxGeometry>
        </mxCell>
        <mxCell id="lSViHXrkh7Qbspp2XSNX-115" value="&lt;b&gt;&lt;font face=&quot;Times New Roman&quot; style=&quot;font-size: 14px&quot;&gt;X&lt;/font&gt;&lt;/b&gt;" style="ellipse;whiteSpace=wrap;html=1;aspect=fixed;" vertex="1" parent="1">
          <mxGeometry x="480" y="306.94" width="24" height="24" as="geometry" />
        </mxCell>
        <mxCell id="lSViHXrkh7Qbspp2XSNX-132" style="edgeStyle=orthogonalEdgeStyle;rounded=0;sketch=0;orthogonalLoop=1;jettySize=auto;html=1;exitX=1;exitY=0.5;exitDx=0;exitDy=0;entryX=0;entryY=0.5;entryDx=0;entryDy=0;strokeColor=#000000;endArrow=openThin;endFill=0;strokeWidth=2;" edge="1" parent="1" source="lSViHXrkh7Qbspp2XSNX-120" target="lSViHXrkh7Qbspp2XSNX-123">
          <mxGeometry relative="1" as="geometry" />
        </mxCell>
        <mxCell id="lSViHXrkh7Qbspp2XSNX-120" value="&lt;font face=&quot;Times New Roman&quot; size=&quot;1&quot;&gt;&lt;b style=&quot;font-size: 14px&quot;&gt;X&lt;/b&gt;&lt;/font&gt;" style="ellipse;whiteSpace=wrap;html=1;aspect=fixed;" vertex="1" parent="1">
          <mxGeometry x="220" y="188.94" width="24" height="24" as="geometry" />
        </mxCell>
        <mxCell id="lSViHXrkh7Qbspp2XSNX-141" style="edgeStyle=orthogonalEdgeStyle;rounded=0;sketch=0;orthogonalLoop=1;jettySize=auto;html=1;exitX=1;exitY=0.5;exitDx=0;exitDy=0;strokeColor=#000000;entryX=-0.005;entryY=0.53;entryDx=0;entryDy=0;entryPerimeter=0;endArrow=openThin;endFill=0;strokeWidth=2;" edge="1" parent="1" source="lSViHXrkh7Qbspp2XSNX-123" target="lSViHXrkh7Qbspp2XSNX-163">
          <mxGeometry relative="1" as="geometry">
            <mxPoint x="309.1428571428571" y="201.0828571428571" as="targetPoint" />
          </mxGeometry>
        </mxCell>
        <mxCell id="lSViHXrkh7Qbspp2XSNX-123" value="&lt;font face=&quot;Times New Roman&quot; size=&quot;1&quot;&gt;&lt;b style=&quot;font-size: 14px&quot;&gt;S&lt;/b&gt;&lt;/font&gt;" style="ellipse;whiteSpace=wrap;html=1;aspect=fixed;" vertex="1" parent="1">
          <mxGeometry x="265" y="188.94" width="24" height="24" as="geometry" />
        </mxCell>
        <mxCell id="lSViHXrkh7Qbspp2XSNX-157" style="edgeStyle=orthogonalEdgeStyle;rounded=0;sketch=0;orthogonalLoop=1;jettySize=auto;html=1;exitX=0;exitY=0;exitDx=20;exitDy=10;exitPerimeter=0;entryX=0.5;entryY=1;entryDx=0;entryDy=0;strokeColor=#000000;endArrow=openThin;endFill=0;strokeWidth=2;" edge="1" parent="1" target="lSViHXrkh7Qbspp2XSNX-129">
          <mxGeometry relative="1" as="geometry">
            <mxPoint x="328" y="177.94" as="sourcePoint" />
          </mxGeometry>
        </mxCell>
        <mxCell id="lSViHXrkh7Qbspp2XSNX-129" value="&lt;b&gt;&lt;font face=&quot;Times New Roman&quot; style=&quot;font-size: 14px&quot;&gt;X&lt;/font&gt;&lt;/b&gt;" style="ellipse;whiteSpace=wrap;html=1;aspect=fixed;" vertex="1" parent="1">
          <mxGeometry x="314" y="131.94" width="24" height="24" as="geometry" />
        </mxCell>
        <mxCell id="lSViHXrkh7Qbspp2XSNX-145" value="&lt;font face=&quot;Times New Roman&quot; size=&quot;1&quot;&gt;&lt;b style=&quot;font-size: 14px&quot;&gt;X&lt;/b&gt;&lt;/font&gt;" style="ellipse;whiteSpace=wrap;html=1;aspect=fixed;" vertex="1" parent="1">
          <mxGeometry x="314" y="243.94" width="24" height="24" as="geometry" />
        </mxCell>
        <mxCell id="lSViHXrkh7Qbspp2XSNX-174" style="edgeStyle=orthogonalEdgeStyle;rounded=0;sketch=0;orthogonalLoop=1;jettySize=auto;html=1;exitX=1;exitY=0.5;exitDx=0;exitDy=0;strokeColor=#000000;endArrow=openThin;endFill=0;strokeWidth=2;" edge="1" parent="1" source="lSViHXrkh7Qbspp2XSNX-153" target="lSViHXrkh7Qbspp2XSNX-173">
          <mxGeometry relative="1" as="geometry" />
        </mxCell>
        <mxCell id="lSViHXrkh7Qbspp2XSNX-153" value="&lt;b&gt;&lt;font face=&quot;Times New Roman&quot; style=&quot;font-size: 14px&quot;&gt;+&lt;/font&gt;&lt;/b&gt;" style="ellipse;whiteSpace=wrap;html=1;aspect=fixed;" vertex="1" parent="1">
          <mxGeometry x="583" y="307.44" width="24" height="24" as="geometry" />
        </mxCell>
        <mxCell id="lSViHXrkh7Qbspp2XSNX-155" style="edgeStyle=orthogonalEdgeStyle;rounded=0;sketch=0;orthogonalLoop=1;jettySize=auto;html=1;exitX=1.019;exitY=0.633;exitDx=0;exitDy=0;strokeColor=#000000;exitPerimeter=0;endArrow=openThin;endFill=0;strokeWidth=2;" edge="1" parent="1" source="lSViHXrkh7Qbspp2XSNX-194">
          <mxGeometry relative="1" as="geometry">
            <mxPoint x="344" y="318.94" as="targetPoint" />
            <mxPoint x="308.00000000000114" y="318.5900000000001" as="sourcePoint" />
          </mxGeometry>
        </mxCell>
        <mxCell id="lSViHXrkh7Qbspp2XSNX-163" value="" style="shape=cube;whiteSpace=wrap;html=1;boundedLbl=1;backgroundOutline=1;darkOpacity=0.05;darkOpacity2=0.1;rounded=0;sketch=0;strokeColor=#23445d;gradientDirection=south;size=7;fillColor=#bac8d3;" vertex="1" parent="1">
          <mxGeometry x="314" y="169.94" width="23" height="58" as="geometry" />
        </mxCell>
        <mxCell id="lSViHXrkh7Qbspp2XSNX-171" style="edgeStyle=orthogonalEdgeStyle;rounded=0;sketch=0;orthogonalLoop=1;jettySize=auto;html=1;exitX=0;exitY=0;exitDx=30;exitDy=50;exitPerimeter=0;entryX=0.5;entryY=1;entryDx=0;entryDy=0;strokeColor=#000000;endArrow=openThin;endFill=0;strokeWidth=2;" edge="1" parent="1" source="lSViHXrkh7Qbspp2XSNX-164" target="lSViHXrkh7Qbspp2XSNX-169">
          <mxGeometry relative="1" as="geometry" />
        </mxCell>
        <mxCell id="lSViHXrkh7Qbspp2XSNX-164" value="" style="shape=cube;whiteSpace=wrap;html=1;boundedLbl=1;backgroundOutline=1;darkOpacity=0.05;darkOpacity2=0.1;fillColor=#FFF2CC;strokeColor=#b46504;size=19;" vertex="1" parent="1">
          <mxGeometry x="366" y="141.94" width="29" height="63" as="geometry" />
        </mxCell>
        <mxCell id="lSViHXrkh7Qbspp2XSNX-168" style="edgeStyle=orthogonalEdgeStyle;rounded=0;sketch=0;orthogonalLoop=1;jettySize=auto;html=1;exitX=0;exitY=0;exitDx=29;exitDy=41;exitPerimeter=0;entryX=0.5;entryY=0;entryDx=0;entryDy=0;strokeColor=#000000;endArrow=openThin;endFill=0;strokeWidth=2;" edge="1" parent="1" source="lSViHXrkh7Qbspp2XSNX-189" target="lSViHXrkh7Qbspp2XSNX-153">
          <mxGeometry relative="1" as="geometry">
            <mxPoint x="404" y="265.94" as="sourcePoint" />
            <Array as="points">
              <mxPoint x="595" y="241.94" />
            </Array>
          </mxGeometry>
        </mxCell>
        <mxCell id="lSViHXrkh7Qbspp2XSNX-172" style="edgeStyle=orthogonalEdgeStyle;rounded=0;sketch=0;orthogonalLoop=1;jettySize=auto;html=1;exitX=1;exitY=0.5;exitDx=0;exitDy=0;strokeColor=#000000;entryX=0.458;entryY=0;entryDx=0;entryDy=0;entryPerimeter=0;endArrow=openThin;endFill=0;strokeWidth=2;" edge="1" parent="1" source="lSViHXrkh7Qbspp2XSNX-169" target="lSViHXrkh7Qbspp2XSNX-173">
          <mxGeometry relative="1" as="geometry">
            <mxPoint x="628" y="182.94" as="targetPoint" />
          </mxGeometry>
        </mxCell>
        <mxCell id="lSViHXrkh7Qbspp2XSNX-169" value="&lt;b&gt;&lt;font face=&quot;Times New Roman&quot; style=&quot;font-size: 14px&quot;&gt;+&lt;/font&gt;&lt;/b&gt;" style="ellipse;whiteSpace=wrap;html=1;aspect=fixed;" vertex="1" parent="1">
          <mxGeometry x="579" y="74.94" width="24" height="24" as="geometry" />
        </mxCell>
        <mxCell id="lSViHXrkh7Qbspp2XSNX-177" style="edgeStyle=orthogonalEdgeStyle;rounded=0;sketch=0;orthogonalLoop=1;jettySize=auto;html=1;exitX=1;exitY=0.5;exitDx=0;exitDy=0;strokeColor=#000000;endArrow=openThin;endFill=0;strokeWidth=2;" edge="1" parent="1" source="lSViHXrkh7Qbspp2XSNX-173">
          <mxGeometry relative="1" as="geometry">
            <mxPoint x="665.2380952380952" y="213.17809523809518" as="targetPoint" />
          </mxGeometry>
        </mxCell>
        <mxCell id="lSViHXrkh7Qbspp2XSNX-173" value="&lt;b&gt;&lt;font face=&quot;Times New Roman&quot; style=&quot;font-size: 14px&quot;&gt;C&lt;/font&gt;&lt;/b&gt;" style="ellipse;whiteSpace=wrap;html=1;aspect=fixed;" vertex="1" parent="1">
          <mxGeometry x="617" y="200.94" width="24" height="24" as="geometry" />
        </mxCell>
        <mxCell id="lSViHXrkh7Qbspp2XSNX-185" value="" style="endArrow=none;html=1;rounded=0;entryX=1;entryY=0.25;entryDx=0;entryDy=0;fillColor=#f8cecc;gradientColor=#ea6b66;strokeColor=#b85450;" edge="1" parent="1">
          <mxGeometry width="50" height="50" relative="1" as="geometry">
            <mxPoint x="126" y="63.00999999999999" as="sourcePoint" />
            <mxPoint x="141" y="62.94" as="targetPoint" />
          </mxGeometry>
        </mxCell>
        <mxCell id="lSViHXrkh7Qbspp2XSNX-186" value="&lt;font face=&quot;Times New Roman&quot; size=&quot;1&quot;&gt;&lt;b style=&quot;font-size: 14px&quot;&gt;Channel Attention&lt;/b&gt;&lt;/font&gt;" style="text;html=1;resizable=0;autosize=1;align=center;verticalAlign=middle;points=[];fillColor=none;strokeColor=none;rounded=0;sketch=0;opacity=30;" vertex="1" parent="1">
          <mxGeometry x="108" y="121.94" width="121" height="18" as="geometry" />
        </mxCell>
        <mxCell id="lSViHXrkh7Qbspp2XSNX-189" value="" style="shape=cube;whiteSpace=wrap;html=1;boundedLbl=1;backgroundOutline=1;darkOpacity=0.05;darkOpacity2=0.1;fillColor=#FFF2CC;strokeColor=#b46504;size=19;" vertex="1" parent="1">
          <mxGeometry x="370" y="200.94" width="29" height="63" as="geometry" />
        </mxCell>
        <mxCell id="lSViHXrkh7Qbspp2XSNX-191" value="" style="shape=cube;whiteSpace=wrap;html=1;boundedLbl=1;backgroundOutline=1;darkOpacity=0.05;darkOpacity2=0.1;fillColor=#FFF2CC;strokeColor=#b46504;size=19;" vertex="1" parent="1">
          <mxGeometry x="280" y="55.44" width="29" height="63" as="geometry" />
        </mxCell>
        <mxCell id="lSViHXrkh7Qbspp2XSNX-192" value="" style="shape=cube;whiteSpace=wrap;html=1;boundedLbl=1;backgroundOutline=1;darkOpacity=0.05;darkOpacity2=0.1;fillColor=#FFF2CC;strokeColor=#b46504;size=19;" vertex="1" parent="1">
          <mxGeometry x="30" y="51.44" width="29" height="63" as="geometry" />
        </mxCell>
        <mxCell id="lSViHXrkh7Qbspp2XSNX-193" value="" style="shape=cube;whiteSpace=wrap;html=1;boundedLbl=1;backgroundOutline=1;darkOpacity=0.05;darkOpacity2=0.1;fillColor=#FFF2CC;strokeColor=#b46504;size=19;" vertex="1" parent="1">
          <mxGeometry x="30" y="287.44" width="29" height="63" as="geometry" />
        </mxCell>
        <mxCell id="lSViHXrkh7Qbspp2XSNX-194" value="" style="shape=cube;whiteSpace=wrap;html=1;boundedLbl=1;backgroundOutline=1;darkOpacity=0.05;darkOpacity2=0.1;fillColor=#FFF2CC;strokeColor=#b46504;size=19;" vertex="1" parent="1">
          <mxGeometry x="277" y="278.94" width="29" height="63" as="geometry" />
        </mxCell>
        <mxCell id="lSViHXrkh7Qbspp2XSNX-195" value="" style="shape=cube;whiteSpace=wrap;html=1;boundedLbl=1;backgroundOutline=1;darkOpacity=0.05;darkOpacity2=0.1;fillColor=#FFF2CC;strokeColor=#b46504;size=19;" vertex="1" parent="1">
          <mxGeometry x="533" y="53.44" width="29" height="63" as="geometry" />
        </mxCell>
        <mxCell id="lSViHXrkh7Qbspp2XSNX-197" value="" style="shape=cube;whiteSpace=wrap;html=1;boundedLbl=1;backgroundOutline=1;darkOpacity=0.05;darkOpacity2=0.1;fillColor=#FFF2CC;strokeColor=#b46504;size=19;" vertex="1" parent="1">
          <mxGeometry x="532" y="290.94" width="29" height="63" as="geometry" />
        </mxCell>
        <mxCell id="lSViHXrkh7Qbspp2XSNX-201" value="" style="endArrow=openThin;html=1;rounded=0;sketch=0;fontFamily=Times New Roman;fontSize=14;strokeColor=#000000;entryX=0.5;entryY=0;entryDx=0;entryDy=0;exitX=0;exitY=0;exitDx=9.5;exitDy=53.5;exitPerimeter=0;endFill=0;strokeWidth=2;" edge="1" parent="1" source="lSViHXrkh7Qbspp2XSNX-191" target="lSViHXrkh7Qbspp2XSNX-120">
          <mxGeometry width="50" height="50" relative="1" as="geometry">
            <mxPoint x="291" y="107.94" as="sourcePoint" />
            <mxPoint x="341" y="57.94" as="targetPoint" />
          </mxGeometry>
        </mxCell>
        <mxCell id="lSViHXrkh7Qbspp2XSNX-202" value="" style="endArrow=openThin;html=1;rounded=0;sketch=0;fontFamily=Times New Roman;fontSize=14;strokeColor=#000000;entryX=0.675;entryY=1;entryDx=0;entryDy=0;entryPerimeter=0;endFill=0;strokeWidth=2;" edge="1" parent="1" target="lSViHXrkh7Qbspp2XSNX-120">
          <mxGeometry width="50" height="50" relative="1" as="geometry">
            <mxPoint x="277" y="278.94" as="sourcePoint" />
            <mxPoint x="327" y="228.94" as="targetPoint" />
          </mxGeometry>
        </mxCell>
        <mxCell id="lSViHXrkh7Qbspp2XSNX-203" value="&lt;font face=&quot;Times New Roman&quot; size=&quot;1&quot;&gt;&lt;b style=&quot;font-size: 14px&quot;&gt;Channel Attention&lt;/b&gt;&lt;/font&gt;" style="text;html=1;resizable=0;autosize=1;align=center;verticalAlign=middle;points=[];fillColor=none;strokeColor=none;rounded=0;sketch=0;opacity=30;" vertex="1" parent="1">
          <mxGeometry x="112" y="260.94" width="121" height="18" as="geometry" />
        </mxCell>
        <mxCell id="lSViHXrkh7Qbspp2XSNX-204" value="" style="endArrow=openThin;html=1;rounded=0;sketch=0;fontFamily=Times New Roman;fontSize=14;strokeColor=#000000;entryX=0.5;entryY=0;entryDx=0;entryDy=0;exitX=0.527;exitY=1.007;exitDx=0;exitDy=0;exitPerimeter=0;endFill=0;strokeWidth=2;" edge="1" parent="1" source="lSViHXrkh7Qbspp2XSNX-163" target="lSViHXrkh7Qbspp2XSNX-145">
          <mxGeometry width="50" height="50" relative="1" as="geometry">
            <mxPoint x="324" y="229.94" as="sourcePoint" />
            <mxPoint x="374" y="179.94" as="targetPoint" />
          </mxGeometry>
        </mxCell>
        <mxCell id="lSViHXrkh7Qbspp2XSNX-209" value="" style="endArrow=openThin;html=1;rounded=1;sketch=0;fontFamily=Times New Roman;fontSize=14;strokeColor=#000000;entryX=0;entryY=0;entryDx=0;entryDy=22;entryPerimeter=0;exitX=1;exitY=0.5;exitDx=0;exitDy=0;endFill=0;strokeWidth=2;" edge="1" parent="1" source="lSViHXrkh7Qbspp2XSNX-129" target="lSViHXrkh7Qbspp2XSNX-164">
          <mxGeometry width="50" height="50" relative="1" as="geometry">
            <mxPoint x="338" y="148.94" as="sourcePoint" />
            <mxPoint x="388" y="98.94" as="targetPoint" />
          </mxGeometry>
        </mxCell>
        <mxCell id="lSViHXrkh7Qbspp2XSNX-210" value="" style="endArrow=openThin;html=1;rounded=1;sketch=0;fontFamily=Times New Roman;fontSize=14;strokeColor=#000000;entryX=-0.048;entryY=0.513;entryDx=0;entryDy=0;entryPerimeter=0;endFill=0;strokeWidth=2;" edge="1" parent="1" target="lSViHXrkh7Qbspp2XSNX-189">
          <mxGeometry width="50" height="50" relative="1" as="geometry">
            <mxPoint x="338" y="257.44" as="sourcePoint" />
            <mxPoint x="388" y="207.44" as="targetPoint" />
          </mxGeometry>
        </mxCell>
        <mxCell id="lSViHXrkh7Qbspp2XSNX-211" value="&lt;font face=&quot;Times New Roman&quot; size=&quot;1&quot;&gt;&lt;b style=&quot;font-size: 14px&quot;&gt;Spatial Attention&lt;/b&gt;&lt;/font&gt;" style="text;html=1;resizable=0;autosize=1;align=center;verticalAlign=middle;points=[];fillColor=none;strokeColor=none;rounded=0;sketch=0;opacity=30;" vertex="1" parent="1">
          <mxGeometry x="382" y="263.94" width="112" height="18" as="geometry" />
        </mxCell>
        <mxCell id="lSViHXrkh7Qbspp2XSNX-212" value="&lt;font face=&quot;Times New Roman&quot; size=&quot;1&quot;&gt;&lt;b style=&quot;font-size: 14px&quot;&gt;Spatial Attention&lt;/b&gt;&lt;/font&gt;" style="text;html=1;resizable=0;autosize=1;align=center;verticalAlign=middle;points=[];fillColor=none;strokeColor=none;rounded=0;sketch=0;opacity=30;" vertex="1" parent="1">
          <mxGeometry x="378.5" y="118.94" width="112" height="18" as="geometry" />
        </mxCell>
        <mxCell id="lSViHXrkh7Qbspp2XSNX-213" value="" style="shape=cube;whiteSpace=wrap;html=1;boundedLbl=1;backgroundOutline=1;darkOpacity=0.05;darkOpacity2=0.1;fillColor=#FFF2CC;strokeColor=#b46504;size=19;" vertex="1" parent="1">
          <mxGeometry x="665" y="186.94" width="29" height="63" as="geometry" />
        </mxCell>
        <mxCell id="lSViHXrkh7Qbspp2XSNX-215" style="edgeStyle=orthogonalEdgeStyle;rounded=1;sketch=0;orthogonalLoop=1;jettySize=auto;html=1;strokeColor=#000000;entryX=0.001;entryY=0.536;entryDx=0;entryDy=0;entryPerimeter=0;endArrow=openThin;endFill=0;strokeWidth=2;" edge="1" parent="1" target="lSViHXrkh7Qbspp2XSNX-5">
          <mxGeometry relative="1" as="geometry">
            <mxPoint x="73" y="83.91" as="targetPoint" />
            <mxPoint x="59" y="83.91" as="sourcePoint" />
          </mxGeometry>
        </mxCell>
        <mxCell id="lSViHXrkh7Qbspp2XSNX-216" style="edgeStyle=orthogonalEdgeStyle;rounded=1;sketch=0;orthogonalLoop=1;jettySize=auto;html=1;exitX=1;exitY=0.5;exitDx=0;exitDy=0;entryX=-0.02;entryY=0.452;entryDx=0;entryDy=0;strokeColor=#000000;entryPerimeter=0;endArrow=openThin;endFill=0;strokeWidth=2;" edge="1" parent="1" target="lSViHXrkh7Qbspp2XSNX-18">
          <mxGeometry relative="1" as="geometry">
            <mxPoint x="203" y="82.77000000000001" as="sourcePoint" />
            <mxPoint x="220" y="82.77000000000001" as="targetPoint" />
          </mxGeometry>
        </mxCell>
        <mxCell id="lSViHXrkh7Qbspp2XSNX-217" style="edgeStyle=orthogonalEdgeStyle;rounded=0;sketch=0;orthogonalLoop=1;jettySize=auto;html=1;exitX=1;exitY=0.5;exitDx=0;exitDy=0;strokeColor=#000000;endArrow=openThin;endFill=0;strokeWidth=2;entryX=0;entryY=0.5;entryDx=0;entryDy=0;" edge="1" parent="1" target="lSViHXrkh7Qbspp2XSNX-169">
          <mxGeometry relative="1" as="geometry">
            <mxPoint x="575" y="87.00999999999999" as="targetPoint" />
            <mxPoint x="561.9999999999951" y="86.87000000000006" as="sourcePoint" />
          </mxGeometry>
        </mxCell>
        <mxCell id="lSViHXrkh7Qbspp2XSNX-219" style="edgeStyle=orthogonalEdgeStyle;rounded=0;sketch=0;orthogonalLoop=1;jettySize=auto;html=1;strokeColor=#000000;endArrow=openThin;endFill=0;strokeWidth=2;entryX=0;entryY=0.5;entryDx=0;entryDy=0;" edge="1" parent="1" target="lSViHXrkh7Qbspp2XSNX-153">
          <mxGeometry relative="1" as="geometry">
            <mxPoint x="574" y="319.38" as="targetPoint" />
            <mxPoint x="561" y="319.38" as="sourcePoint" />
          </mxGeometry>
        </mxCell>
        <mxCell id="lSViHXrkh7Qbspp2XSNX-221" value="P" style="ellipse;whiteSpace=wrap;html=1;aspect=fixed;" vertex="1" parent="1">
          <mxGeometry x="720" y="79.44" width="24" height="24" as="geometry" />
        </mxCell>
        <mxCell id="lSViHXrkh7Qbspp2XSNX-222" value="&lt;font face=&quot;Times New Roman&quot; size=&quot;1&quot;&gt;&lt;b style=&quot;font-size: 15px&quot;&gt;Global Max Pooling&lt;/b&gt;&lt;/font&gt;" style="text;html=1;resizable=0;autosize=1;align=center;verticalAlign=middle;points=[];fillColor=none;strokeColor=none;rounded=0;sketch=0;opacity=30;" vertex="1" parent="1">
          <mxGeometry x="760" y="79.44" width="140" height="20" as="geometry" />
        </mxCell>
        <mxCell id="lSViHXrkh7Qbspp2XSNX-223" value="R" style="ellipse;whiteSpace=wrap;html=1;aspect=fixed;" vertex="1" parent="1">
          <mxGeometry x="720" y="119.44" width="26" height="26" as="geometry" />
        </mxCell>
        <mxCell id="lSViHXrkh7Qbspp2XSNX-224" value="&lt;div style=&quot;font-size: 15px&quot;&gt;&lt;font face=&quot;Times New Roman&quot; style=&quot;font-size: 15px&quot;&gt;&lt;b&gt;Global Max Pooling&lt;/b&gt;&lt;/font&gt;&lt;/div&gt;&lt;div style=&quot;font-size: 15px&quot;&gt;&lt;font face=&quot;Times New Roman&quot; style=&quot;font-size: 15px&quot;&gt;&lt;b&gt;along the channel&lt;/b&gt;&lt;/font&gt;&lt;/div&gt;" style="text;html=1;resizable=0;autosize=1;align=center;verticalAlign=middle;points=[];fillColor=none;strokeColor=none;rounded=0;sketch=0;opacity=30;" vertex="1" parent="1">
          <mxGeometry x="760" y="121.94" width="140" height="30" as="geometry" />
        </mxCell>
        <mxCell id="lSViHXrkh7Qbspp2XSNX-225" value="S" style="ellipse;whiteSpace=wrap;html=1;aspect=fixed;" vertex="1" parent="1">
          <mxGeometry x="720" y="160.44" width="24" height="24" as="geometry" />
        </mxCell>
        <mxCell id="lSViHXrkh7Qbspp2XSNX-226" value="&lt;font face=&quot;Times New Roman&quot; size=&quot;1&quot;&gt;&lt;b style=&quot;font-size: 15px&quot;&gt;softmax&lt;/b&gt;&lt;/font&gt;" style="text;html=1;resizable=0;autosize=1;align=center;verticalAlign=middle;points=[];fillColor=none;strokeColor=none;rounded=0;sketch=0;opacity=30;" vertex="1" parent="1">
          <mxGeometry x="760" y="160.44" width="70" height="20" as="geometry" />
        </mxCell>
        <mxCell id="lSViHXrkh7Qbspp2XSNX-227" value="X" style="ellipse;whiteSpace=wrap;html=1;aspect=fixed;" vertex="1" parent="1">
          <mxGeometry x="720" y="200.44" width="24" height="24" as="geometry" />
        </mxCell>
        <mxCell id="lSViHXrkh7Qbspp2XSNX-228" value="&lt;font face=&quot;Times New Roman&quot; size=&quot;1&quot;&gt;&lt;b style=&quot;font-size: 15px&quot;&gt;Element-wise Multiplication&lt;/b&gt;&lt;/font&gt;" style="text;html=1;resizable=0;autosize=1;align=center;verticalAlign=middle;points=[];fillColor=none;strokeColor=none;rounded=0;sketch=0;opacity=30;" vertex="1" parent="1">
          <mxGeometry x="760" y="200.94" width="200" height="20" as="geometry" />
        </mxCell>
        <mxCell id="lSViHXrkh7Qbspp2XSNX-229" value="+" style="ellipse;whiteSpace=wrap;html=1;aspect=fixed;" vertex="1" parent="1">
          <mxGeometry x="721" y="239.94" width="24" height="24" as="geometry" />
        </mxCell>
        <mxCell id="lSViHXrkh7Qbspp2XSNX-230" value="&lt;font face=&quot;Times New Roman&quot; size=&quot;1&quot;&gt;&lt;b style=&quot;font-size: 15px&quot;&gt;Element-wise Summation&lt;/b&gt;&lt;/font&gt;" style="text;html=1;resizable=0;autosize=1;align=center;verticalAlign=middle;points=[];fillColor=none;strokeColor=none;rounded=0;sketch=0;opacity=30;" vertex="1" parent="1">
          <mxGeometry x="760" y="239.94" width="180" height="20" as="geometry" />
        </mxCell>
        <mxCell id="lSViHXrkh7Qbspp2XSNX-231" value="C" style="ellipse;whiteSpace=wrap;html=1;aspect=fixed;" vertex="1" parent="1">
          <mxGeometry x="720" y="278.94" width="24" height="24" as="geometry" />
        </mxCell>
        <mxCell id="lSViHXrkh7Qbspp2XSNX-232" value="&lt;font face=&quot;Times New Roman&quot; size=&quot;1&quot;&gt;&lt;b style=&quot;font-size: 15px&quot;&gt;Concatenation&lt;/b&gt;&lt;/font&gt;" style="text;html=1;resizable=0;autosize=1;align=center;verticalAlign=middle;points=[];fillColor=none;strokeColor=none;rounded=0;sketch=0;opacity=30;" vertex="1" parent="1">
          <mxGeometry x="760" y="280.44" width="110" height="20" as="geometry" />
        </mxCell>
        <mxCell id="lSViHXrkh7Qbspp2XSNX-239" style="edgeStyle=orthogonalEdgeStyle;rounded=0;sketch=0;orthogonalLoop=1;jettySize=auto;html=1;exitX=1;exitY=0.5;exitDx=0;exitDy=0;strokeColor=#000000;endArrow=openThin;endFill=0;strokeWidth=2;" edge="1" parent="1">
          <mxGeometry relative="1" as="geometry">
            <mxPoint x="531.0000000000001" y="319.34" as="targetPoint" />
            <mxPoint x="503.99999999999534" y="319.34" as="sourcePoint" />
          </mxGeometry>
        </mxCell>
        <mxCell id="lSViHXrkh7Qbspp2XSNX-241" style="edgeStyle=orthogonalEdgeStyle;rounded=0;sketch=0;orthogonalLoop=1;jettySize=auto;html=1;exitX=1;exitY=0.5;exitDx=0;exitDy=0;strokeColor=#000000;endArrow=openThin;endFill=0;entryX=-0.067;entryY=0.506;entryDx=0;entryDy=0;entryPerimeter=0;strokeWidth=2;" edge="1" parent="1" target="lSViHXrkh7Qbspp2XSNX-195">
          <mxGeometry relative="1" as="geometry">
            <mxPoint x="513" y="85.91999999999997" as="targetPoint" />
            <mxPoint x="502" y="85.85999999999997" as="sourcePoint" />
          </mxGeometry>
        </mxCell>
      </root>
    </mxGraphModel>
  </diagram>
</mxfile>
